<svg xmlns="http://www.w3.org/2000/svg" width="458" height="472" viewBox="0 0 343.5 354"><defs><clipPath id="a"><path d="M0 .258h343v353.484H0Zm0 0"/></clipPath><clipPath id="c"><path d="M64.262 89.156h9.578v50.457h-9.578Zm0 0"/></clipPath><clipPath id="d"><path d="M73.766 93.496c-.598 44.563-1.047 44.934-1.723 45.383-.746.45-1.723.824-2.621.676-1.047-.075-2.695-1.125-3.367-1.95-.528-.746-.676-1.796-.528-2.62.078-.9.528-1.872 1.125-2.47.524-.6 1.422-1.124 2.32-1.199 1.126-.148 2.923.375 3.747 1.2.75.824 1.199 2.695 1.047 3.82-.149.898-.746 1.723-1.422 2.246-.598.598-1.649.973-2.473.973-.82.074-1.871-.149-2.543-.676-.824-.672-1.348-1.57-1.875-3.445-1.57-6.141-1.422-36.094-.375-41.864.227-1.57.45-2.172 1.05-2.918.599-.75 1.798-1.351 2.696-1.425.973-.149 2.246.074 2.996.675.899.672 1.946 3.594 1.946 3.594"/></clipPath><clipPath id="f"><path d="M.262.156H9.84v50.457H.262Zm0 0"/></clipPath><clipPath id="g"><path d="M9.766 4.496C9.168 49.06 8.719 49.43 8.043 49.88c-.746.45-1.723.824-2.621.676-1.047-.075-2.695-1.125-3.367-1.95-.528-.746-.676-1.796-.528-2.62.078-.9.528-1.872 1.125-2.47.524-.6 1.422-1.124 2.32-1.199 1.126-.148 2.923.375 3.747 1.2.75.824 1.199 2.695 1.047 3.82-.149.898-.746 1.723-1.422 2.246-.598.598-1.649.973-2.473.973-.82.074-1.871-.149-2.543-.676-.824-.672-1.348-1.57-1.875-3.445C-.117 40.293.031 10.34 1.078 4.57c.227-1.57.45-2.172 1.05-2.918.6-.75 1.799-1.351 2.697-1.425C5.797.078 7.07.3 7.82.902c.899.672 1.946 3.594 1.946 3.594"/></clipPath><clipPath id="e"><path d="M0 0h10v51H0z"/></clipPath><clipPath id="h"><path d="M65.488 52.68h76.965v43.03H65.488Zm0 0"/></clipPath><clipPath id="i"><path d="M67.926 86.906c22.316-12.883 30.93-17.3 39.394-21.344 9.211-4.343 24.414-11.984 29.13-12.73 1.5-.152 2.171 0 3.073.375.899.45 1.72 1.348 2.172 2.172.45.82.746 2.02.45 2.992-.301 1.2-1.575 2.996-2.774 3.52-1.2.527-3.371.3-4.492-.297-.899-.45-1.574-1.422-1.871-2.324-.375-.899-.528-2.094-.153-3.07.45-1.196 1.872-2.77 3.145-3.22 1.273-.375 3.371.149 4.422.825.82.523 1.422 1.574 1.644 2.547.227.898.153 2.171-.222 3.07-.375.824-.75 1.348-2.024 2.246-3.82 2.848-19.172 8.012-28.16 12.207-8.387 3.969-16.847 8.313-24.039 12.207-5.992 3.219-12.805 8.54-16.176 9.285-1.422.301-2.32.153-3.218-.297-.977-.449-1.875-1.425-2.247-2.398-.453-.899-.453-2.246-.152-3.219.3-.973 2.098-2.547 2.098-2.547"/></clipPath><clipPath id="k"><path d="M.488.68h76.965v43.03H.488Zm0 0"/></clipPath><clipPath id="l"><path d="M2.926 34.906c22.316-12.883 30.93-17.3 39.394-21.343C51.531 9.218 66.734 1.578 71.45.832c1.5-.152 2.171 0 3.073.375.899.45 1.72 1.348 2.172 2.172.45.82.746 2.02.45 2.992-.301 1.2-1.575 2.996-2.774 3.52-1.2.527-3.371.3-4.492-.297-.899-.45-1.574-1.422-1.871-2.324-.375-.899-.528-2.094-.153-3.07.45-1.196 1.872-2.77 3.145-3.22 1.273-.375 3.371.149 4.422.825.82.523 1.422 1.574 1.644 2.547.227.898.153 2.171-.222 3.07-.375.824-.75 1.348-2.024 2.246C71 12.516 55.648 17.68 46.66 21.875c-8.387 3.969-16.847 8.313-24.039 12.207-5.992 3.219-12.805 8.54-16.176 9.285-1.422.301-2.32.153-3.218-.297-.977-.449-1.875-1.425-2.247-2.398-.453-.899-.453-2.246-.152-3.219.3-.973 2.098-2.547 2.098-2.547"/></clipPath><clipPath id="j"><path d="M0 0h78v44H0z"/></clipPath><clipPath id="m"><path d="M66.543 130.61h68.434v68.14H66.543Zm0 0"/></clipPath><clipPath id="n"><path d="M74.441 132.066c58.266 57.067 60.063 58.79 60.364 60.961.222 1.57-.528 3.371-1.5 4.344-.973.899-3.22 1.348-4.493 1.2-1.05-.153-2.023-.903-2.62-1.65-.676-.75-1.2-1.874-1.2-2.921.074-1.273.899-3.371 2.024-4.195 1.046-.82 3.293-1.047 4.566-.672.977.222 1.875 1.047 2.473 1.87.523.825.972 2.024.824 3.071-.227 1.274-1.422 3.145-2.473 3.895-.824.601-2.02.75-3.07.676-.973-.153-2.098-.676-2.844-1.348-.75-.75-.527-1.649-1.722-3.149-5.094-6.738-40.145-38.718-49.282-47.855-3.668-3.668-6.066-5.691-7.488-7.785-.824-1.125-1.273-1.95-1.348-2.922-.074-1.05.45-2.324.973-3.145a4.3 4.3 0 0 1 1.723-1.347c.601-.301 1.347-.453 2.172-.375.898.148 2.921 1.347 2.921 1.347"/></clipPath><clipPath id="p"><path d="M.543.629h68.434V68.75H.543Zm0 0"/></clipPath><clipPath id="q"><path d="M8.441 2.066c58.266 57.067 60.063 58.79 60.364 60.961.222 1.57-.528 3.371-1.5 4.344-.973.899-3.22 1.348-4.493 1.2-1.05-.153-2.023-.903-2.62-1.65-.676-.75-1.2-1.874-1.2-2.921.074-1.273.899-3.371 2.024-4.195 1.047-.82 3.293-1.047 4.566-.672.977.222 1.875 1.047 2.473 1.87.523.825.972 2.024.824 3.071-.227 1.274-1.422 3.145-2.473 3.895-.824.601-2.02.75-3.07.676-.973-.153-2.098-.676-2.844-1.348-.75-.75-.527-1.649-1.722-3.149C53.676 57.41 18.625 25.43 9.488 16.293 5.82 12.625 3.422 10.602 2 8.508 1.176 7.383.727 6.558.652 5.586c-.074-1.05.45-2.324.973-3.145a4.3 4.3 0 0 1 1.723-1.347C3.949.793 4.695.64 5.52.719c.898.148 2.92 1.347 2.92 1.347"/></clipPath><clipPath id="o"><path d="M0 0h69v69H0z"/></clipPath><clipPath id="r"><path d="M125.293 103.926h11.035v121.62h-11.035Zm0 0"/></clipPath><clipPath id="s"><path d="M136.3 108.477c-.448 114.582-.898 115.48-1.945 116.152-1.05.75-3.148.976-4.343.45-1.2-.45-2.547-2.02-2.848-3.294-.223-1.273.3-3.297 1.2-4.195.898-.973 2.843-1.649 4.116-1.422 1.274.227 2.997 1.496 3.52 2.621.527 1.2.375 3.297-.223 4.418-.675 1.05-2.547 2.098-3.746 2.246a3.73 3.73 0 0 1-2.918-.824c-.898-.746-1.425-1.57-2.023-3.816-2.922-11.61-1.797-101.852.148-112.336.301-1.723.45-2.25 1.125-2.997.672-.75 1.797-1.425 2.844-1.5 1.2 0 3.07.676 3.895 1.5.75.747 1.199 2.997 1.199 2.997"/></clipPath><clipPath id="u"><path d="M.293.926h11.035v121.62H.293Zm0 0"/></clipPath><clipPath id="v"><path d="M11.3 5.477c-.448 114.582-.898 115.48-1.945 116.152-1.05.75-3.148.976-4.343.45-1.2-.45-2.547-2.02-2.848-3.294-.223-1.273.3-3.297 1.2-4.195.898-.973 2.843-1.649 4.116-1.422 1.274.227 2.997 1.496 3.52 2.621.527 1.2.375 3.297-.223 4.418-.675 1.05-2.547 2.098-3.746 2.246a3.73 3.73 0 0 1-2.918-.824c-.898-.746-1.426-1.57-2.023-3.817C-.832 106.204.293 15.962 2.238 5.478c.301-1.723.45-2.25 1.125-2.997.672-.75 1.797-1.425 2.844-1.5 1.2 0 3.07.676 3.895 1.5.75.747 1.199 2.997 1.199 2.997"/></clipPath><clipPath id="t"><path d="M0 0h12v123H0z"/></clipPath><clipPath id="w"><path d="M127.398 50.7h110.735v61.667H127.398Zm0 0"/></clipPath><clipPath id="x"><path d="M129.582 104.234c23.008-14.125 33.512-19.832 45.2-25.761 15.316-7.903 45.718-22.684 53.71-26.121 2.219-.954 2.957-1.614 4.363-1.614s3.258.586 4.07 1.54c.887.949 1.259 3 1.036 4.171-.149.95-.887 1.903-1.555 2.489-.738.511-1.847 1.023-2.808.949-1.184-.075-3.184-.88-3.922-1.903-.742-1.023-.887-3.144-.52-4.316.223-.953 1.035-1.758 1.852-2.27.812-.437 1.922-.804 2.883-.66 1.183.223 3.035 1.246 3.625 2.344.668 1.098.593 3.219.148 4.316-.441.88-.887 1.172-2.144 2.051-4.29 2.926-22.047 9.73-31.958 14.414-8.73 4.172-15.906 7.758-24.414 12.149-9.617 4.976-21.824 11.488-30.109 16.32-6.066 3.586-12.207 8.781-15.535 9.73-1.332.368-2.223.293-3.11-.074-.96-.363-1.921-1.316-2.367-2.12-.445-.88-.515-2.196-.297-3.145.297-.953 1.852-2.489 1.852-2.489"/></clipPath><clipPath id="z"><path d="M.496.7h110.637v61.667H.496Zm0 0"/></clipPath><clipPath id="A"><path d="M2.582 54.234c23.008-14.125 33.512-19.832 45.2-25.761C63.097 20.57 93.5 5.789 101.491 2.352c2.219-.954 2.957-1.614 4.363-1.614s3.258.586 4.07 1.54c.888.949 1.259 3 1.036 4.171-.148.95-.887 1.903-1.555 2.489-.738.511-1.847 1.023-2.808.949-1.184-.075-3.184-.88-3.922-1.903-.742-1.023-.887-3.144-.52-4.316.223-.953 1.035-1.758 1.852-2.27.812-.437 1.922-.804 2.883-.66 1.183.223 3.035 1.246 3.625 2.344.668 1.098.593 3.219.148 4.316-.441.88-.887 1.172-2.144 2.051-4.29 2.926-22.047 9.73-31.957 14.414-8.731 4.172-15.907 7.758-24.415 12.149-9.617 4.976-21.824 11.488-30.109 16.32-6.066 3.586-12.207 8.781-15.535 9.73-1.332.368-2.223.293-3.11-.074-.96-.363-1.921-1.316-2.367-2.12-.445-.88-.515-2.196-.297-3.145.297-.953 1.852-2.489 1.852-2.489"/></clipPath><clipPath id="y"><path d="M0 0h112v63H0z"/></clipPath><clipPath id="B"><path d="M129.723 217.156h41.636v23.676h-41.636Zm0 0"/></clipPath><clipPath id="C"><path d="M135.852 217.293c20.296 7.637 31.53 12.504 34.152 15.352.973 1.046 1.195 1.87 1.27 2.843.078.977-.223 2.172-.747 2.996-.523.899-1.5 1.649-2.398 2.024-.899.3-2.098.449-3.145.074-1.125-.45-2.847-1.871-3.218-3.219-.45-1.273 0-3.445.824-4.496.82-1.047 2.918-1.797 4.191-1.797 1.051-.074 2.098.524 2.848 1.2.746.597 1.422 1.722 1.57 2.695.227.972.074 2.172-.375 3.07-.449.899-1.195 1.875-2.172 2.246-1.195.45-2.62.375-4.64-.074-4.047-1.047-12.207-6.812-17.899-9.36-4.945-2.171-11.836-3.445-14.304-5.242-1.125-.898-1.649-1.722-1.95-2.699-.222-.972-.148-2.32.301-3.219.45-.972 1.496-1.87 2.395-2.246.976-.449 3.297-.148 3.297-.148"/></clipPath><clipPath id="E"><path d="M.723.156h41.636v23.676H.723Zm0 0"/></clipPath><clipPath id="F"><path d="M6.852.293c20.296 7.637 31.53 12.504 34.152 15.352.973 1.046 1.195 1.87 1.27 2.843.078.977-.223 2.172-.747 2.996-.523.899-1.5 1.649-2.398 2.024-.899.3-2.098.449-3.145.074-1.125-.45-2.847-1.871-3.218-3.219-.45-1.273 0-3.445.824-4.496.82-1.047 2.918-1.797 4.191-1.797 1.051-.074 2.098.524 2.848 1.2.746.597 1.422 1.722 1.57 2.695.227.973.074 2.172-.375 3.07-.449.899-1.195 1.875-2.172 2.246-1.195.45-2.62.375-4.64-.074-4.047-1.047-12.207-6.812-17.899-9.36-4.945-2.171-11.836-3.445-14.304-5.242C1.684 7.707 1.16 6.883.859 5.906c-.222-.972-.148-2.32.301-3.218C1.61 1.715 2.656.815 3.555.44 4.53-.008 6.852.293 6.852.293"/></clipPath><clipPath id="D"><path d="M0 0h43v24H0z"/></clipPath><clipPath id="G"><path d="M163.031 171.145H277v68.628H163.031Zm0 0"/></clipPath><clipPath id="H"><path d="M165.36 231.223c103.574-58.942 104.695-59.84 106.343-59.989 1.125-.152 2.098 0 2.922.598 1.047.75 2.246 2.473 2.32 3.82.075 1.274-.824 3.22-1.87 3.97-1.048.823-3.145 1.046-4.345.75-.972-.227-1.87-1.052-2.394-1.798-.527-.824-.977-1.949-.824-2.922.148-1.199 1.12-3.144 2.246-3.82 1.12-.672 3.293-.672 4.418-.223a4.1 4.1 0 0 1 2.246 2.094c.45 1.125.45 3.297 0 4.422-.45.898-.973 1.195-2.246 2.02-3.746 2.695-14.453 7.34-25.09 13.183-19.098 10.484-70.172 42.461-79.082 45.758-1.649.598-2.172.746-3.149.523-1.195-.3-2.77-1.574-3.292-2.62-.524-.973-.524-2.247-.153-3.223.3-.973 1.95-2.543 1.95-2.543"/></clipPath><clipPath id="J"><path d="M.031.145H114v68.628H.031Zm0 0"/></clipPath><clipPath id="K"><path d="M2.36 60.223C105.933 1.28 107.054.383 108.702.234c1.125-.152 2.098 0 2.922.598 1.047.75 2.246 2.473 2.32 3.82.075 1.274-.824 3.22-1.87 3.97-1.048.823-3.145 1.046-4.345.75-.972-.227-1.87-1.052-2.394-1.798-.527-.824-.977-1.949-.824-2.922.148-1.199 1.12-3.144 2.246-3.82 1.12-.672 3.293-.672 4.418-.223a4.1 4.1 0 0 1 2.246 2.094c.45 1.125.45 3.297 0 4.422-.45.898-.973 1.195-2.246 2.02-3.746 2.695-14.453 7.34-25.09 13.183C66.988 32.813 15.914 64.79 7.004 68.086c-1.649.598-2.172.746-3.149.523-1.195-.3-2.77-1.574-3.292-2.62-.524-.973-.524-2.247-.153-3.223.3-.973 1.95-2.543 1.95-2.543"/></clipPath><clipPath id="I"><path d="M0 0h114v69H0z"/></clipPath><clipPath id="Q"><path d="M270 68.2h11.313v109.468H270Zm0 0"/></clipPath><clipPath id="R"><path d="M271.105 173.031c.301-68.527-1.796-93.539-.824-99.832.223-1.644.301-2.172.973-2.992.898-.977 2.922-1.875 4.195-1.95 1.047 0 2.172.45 2.922 1.2.899.898 1.871 2.922 1.723 4.27-.153 1.347-1.5 3.144-2.547 3.816-.899.602-2.098.75-3.149.527-1.27-.3-3.07-1.648-3.668-2.773-.523-.973-.597-2.172-.375-3.145.227-.972.899-2.097 1.649-2.695.75-.676 1.945-1.125 2.922-1.2.972-.073 2.246.302 3.07.825.824.598 1.348.973 1.871 2.547 2.246 6.441 1.047 38.793 1.047 56.691.078 16.102 1.125 39.993-.746 45.832-.527 1.575-1.05 2.098-1.875 2.7-.824.523-2.094.898-3.145.746-.972-.149-2.171-.746-2.843-1.496-.676-.75-1.2-3.07-1.2-3.07"/></clipPath><clipPath id="T"><path d="M0 .2h11.313v109.468H0Zm0 0"/></clipPath><clipPath id="U"><path d="M1.105 105.031C1.406 36.504-.69 11.492.281 5.2c.223-1.644.301-2.172.973-2.992C2.152 1.23 4.176.332 5.449.257c1.047 0 2.172.45 2.922 1.2.899.898 1.871 2.922 1.723 4.27-.153 1.347-1.5 3.144-2.547 3.816-.899.602-2.098.75-3.149.527-1.27-.3-3.07-1.648-3.668-2.773C.207 6.324.133 5.125.355 4.152c.227-.972.899-2.097 1.649-2.695.75-.676 1.945-1.125 2.922-1.2.972-.073 2.246.302 3.07.825.824.598 1.348.973 1.871 2.547 2.246 6.441 1.047 38.793 1.047 56.691.078 16.102 1.125 39.993-.746 45.832-.527 1.575-1.05 2.098-1.875 2.7-.824.523-2.094.898-3.145.746-.972-.149-2.171-.746-2.843-1.496-.676-.75-1.2-3.07-1.2-3.07"/></clipPath><clipPath id="S"><path d="M0 0h12v110H0z"/></clipPath><clipPath id="aa"><path d="M228.852 50.734h51.039v26.914h-51.04Zm0 0"/></clipPath><clipPath id="ab"><path d="M234.82 50.809c28.61 10.933 38.868 15.129 42.164 17.375 1.274.824 1.797 1.347 2.246 2.171.45.899.676 2.098.45 3.145-.375 1.2-1.797 2.996-2.922 3.594-.899.449-2.094.601-3.07.226-1.196-.375-2.997-1.797-3.446-3.07s0-3.445.602-4.492c.523-.903 1.496-1.649 2.547-1.875 1.273-.223 3.445.152 4.492.898.898.528 1.496 1.649 1.722 2.621.223.977.149 2.172-.226 3.07-.45.9-1.195 1.95-2.094 2.4-1.2.523-2.473.523-4.57.073-5.766-1.125-22.39-10.785-30.106-13.855-4.644-1.871-9.363-2.32-11.535-3.895-1.12-.746-1.722-1.57-2.02-2.547-.3-.972-.226-2.32.15-3.293.448-.898 1.421-1.87 2.32-2.32.898-.375 3.296-.226 3.296-.226"/></clipPath><clipPath id="ad"><path d="M.852.734H51.89v26.914H.85Zm0 0"/></clipPath><clipPath id="ae"><path d="M6.82.809c28.61 10.933 38.868 15.129 42.164 17.375 1.274.824 1.797 1.347 2.246 2.171.45.899.676 2.098.45 3.145-.375 1.2-1.797 2.996-2.922 3.594-.899.449-2.094.601-3.07.226-1.196-.375-2.997-1.797-3.446-3.07s0-3.445.602-4.492c.523-.903 1.496-1.649 2.547-1.875 1.273-.223 3.445.152 4.492.898.898.528 1.496 1.649 1.722 2.621.223.977.149 2.172-.226 3.07-.45.9-1.195 1.95-2.094 2.4-1.2.523-2.472.523-4.57.073-5.766-1.125-22.39-10.785-30.106-13.855-4.644-1.871-9.363-2.32-11.535-3.895-1.12-.746-1.722-1.57-2.02-2.547-.3-.972-.226-2.32.15-3.293.448-.898 1.421-1.87 2.32-2.32C4.421.66 6.82.81 6.82.81"/></clipPath><clipPath id="ac"><path d="M0 0h52v28H0z"/></clipPath><clipPath id="ak"><path d="M73 140.152h59.902v66.246H73Zm0 0"/></clipPath><clipPath id="al"><path d="M83.578 145.023c1.348 29.207 2.621 28.98 5.168 30.48 6.664 3.895 31.379 15.278 38.043 19.173 2.473 1.496 3.895 2.094 4.945 3.367.672.898 1.196 1.875 1.121 2.996-.074 1.274-.898 3.371-2.02 4.195-1.124.825-3.37 1.121-4.644.672-1.273-.449-2.77-2.172-3.144-3.441-.375-.977-.3-2.25.223-3.149.523-1.195 2.32-2.62 3.593-2.996 1.051-.297 2.25-.148 3.149.375 1.12.676 2.468 2.473 2.77 3.746.3 1.047-.075 2.32-.524 3.145-.524.898-1.422 1.797-2.399 2.172-.898.449-1.722.597-3.144.3-3.52-.75-10.934-6.14-17.375-9.511-8.086-4.195-22.39-10.785-27.336-13.406-1.945-.973-2.77-1.274-3.969-2.172-1.347-1.047-2.77-1.649-3.594-3.82-2.171-5.465-1.574-28.383 0-33.25.45-1.5.973-2.098 1.797-2.696.899-.601 2.246-.898 3.219-.824 1.05.148 2.25.824 2.922 1.57.676.75 1.2 3.074 1.2 3.074"/></clipPath><clipPath id="an"><path d="M0 .215h59.902v66.14H0Zm0 0"/></clipPath><clipPath id="ao"><path d="M10.578 5.023c1.348 29.207 2.621 28.98 5.168 30.48 6.664 3.895 31.379 15.278 38.043 19.173 2.473 1.496 3.895 2.094 4.945 3.367.672.898 1.196 1.875 1.121 2.996-.074 1.273-.898 3.371-2.02 4.195-1.124.825-3.37 1.121-4.644.672-1.273-.449-2.77-2.172-3.144-3.441-.375-.977-.3-2.25.223-3.149.523-1.195 2.32-2.62 3.593-2.996 1.051-.297 2.25-.148 3.149.375 1.12.676 2.468 2.473 2.77 3.746.3 1.047-.075 2.32-.524 3.145-.524.898-1.422 1.797-2.399 2.172-.898.449-1.722.597-3.144.3-3.52-.75-10.934-6.14-17.375-9.511-8.086-4.195-22.39-10.785-27.336-13.406-1.945-.973-2.77-1.274-3.969-2.172-1.348-1.047-2.77-1.649-3.594-3.82-2.171-5.465-1.574-28.383 0-33.25.45-1.5.973-2.098 1.797-2.696C4.137.602 5.484.305 6.457.38c1.05.148 2.25.824 2.922 1.57.676.75 1.2 3.074 1.2 3.074"/></clipPath><clipPath id="am"><path d="M0 0h60v67H0z"/></clipPath><clipPath id="ap"><path d="M56.203 213.785H67v47.875H56.203Zm0 0"/></clipPath><clipPath id="aq"><path d="M66.578 218.266c-.523 41.937-1.871 42.687-3.07 43.136-.973.375-2.172.223-3.07-.148-.899-.375-1.876-1.2-2.399-2.024-.45-.824-.746-2.097-.672-3.07.149-.973.524-2.098 1.348-2.77.898-.824 3.07-1.574 4.27-1.5 1.046.15 2.093.676 2.769 1.5.824.973 1.422 3.145 1.2 4.344-.153 1.047-.825 2.02-1.575 2.696-.75.597-1.945 1.12-2.922 1.12-.973.075-2.172-.148-2.992-.823-.977-.747-1.574-1.872-2.098-4.043-1.574-6.215-1.5-33.778.074-39.168.45-1.575.973-2.172 1.797-2.77.75-.601 2.098-.976 3.145-.898.972.074 2.246.672 2.922 1.422.675.75 1.273 2.996 1.273 2.996"/></clipPath><clipPath id="as"><path d="M.203.785H11V48.66H.203Zm0 0"/></clipPath><clipPath id="at"><path d="M10.578 5.266c-.523 41.937-1.871 42.687-3.07 43.136-.973.375-2.172.223-3.07-.148-.899-.375-1.875-1.2-2.399-2.024-.45-.824-.746-2.097-.672-3.07.149-.972.524-2.097 1.348-2.77.898-.824 3.07-1.574 4.27-1.5 1.046.15 2.093.676 2.769 1.5.824.973 1.422 3.145 1.2 4.344-.153 1.047-.825 2.02-1.575 2.696-.75.597-1.945 1.12-2.922 1.12-.973.075-2.172-.148-2.992-.823-.977-.747-1.574-1.872-2.098-4.043-1.574-6.215-1.5-33.778.074-39.168.45-1.575.973-2.172 1.797-2.77.75-.601 2.098-.976 3.145-.898.972.074 2.246.672 2.922 1.422.675.75 1.273 2.996 1.273 2.996"/></clipPath><clipPath id="ar"><path d="M0 0h11v49H0z"/></clipPath><clipPath id="au"><path d="M56.871 189.008H112.2V221H56.871Zm0 0"/></clipPath><clipPath id="av"><path d="M59.313 212.348c35.199-18.047 43.21-23.067 47.332-23.141 1.945-.074 3.37.75 4.27 1.648.745.75 1.198 1.946 1.198 2.922.075.973-.226 2.246-.75 3.07-.601.821-1.5 1.645-2.547 1.946-1.199.3-3.445-.074-4.57-.75-.898-.523-1.496-1.645-1.797-2.543-.297-.977-.297-2.25.153-3.148.523-1.196 2.246-2.696 3.52-3.07.972-.298 2.171-.075 3.144.3.898.45 1.796 1.273 2.246 2.172.523.824.824 2.023.601 3.07-.3 1.274-1.199 2.473-2.773 3.746-3.145 2.543-10.86 4.64-17.375 7.711-8.535 3.969-24.266 13.633-29.207 14.606-1.574.222-2.395.074-3.293-.375-.903-.45-1.8-1.422-2.25-2.399-.371-.972-.371-2.32 0-3.293.3-.972 2.097-2.472 2.097-2.472"/></clipPath><clipPath id="ax"><path d="M.871.008H56.2V32H.871Zm0 0"/></clipPath><clipPath id="ay"><path d="M3.313 23.348C38.512 5.3 46.523.28 50.645.207c1.945-.074 3.37.75 4.27 1.648.745.75 1.198 1.946 1.198 2.922.075.973-.226 2.246-.75 3.07-.601.821-1.5 1.645-2.547 1.946-1.199.3-3.445-.074-4.57-.75-.898-.523-1.496-1.645-1.797-2.543-.297-.977-.297-2.25.153-3.148.523-1.196 2.246-2.696 3.52-3.07.972-.298 2.171-.075 3.144.3.898.45 1.797 1.273 2.246 2.172.523.824.824 2.023.601 3.07-.3 1.274-1.199 2.473-2.773 3.746-3.145 2.543-10.86 4.64-17.375 7.711C27.43 21.25 11.699 30.914 6.758 31.887c-1.574.222-2.395.074-3.293-.375-.902-.45-1.8-1.422-2.25-2.399-.371-.972-.371-2.32 0-3.293.3-.972 2.097-2.472 2.097-2.472"/></clipPath><clipPath id="aw"><path d="M0 0h57v32H0z"/></clipPath><clipPath id="az"><path d="M249.883 185.809h8.793v9.027h-8.793Zm0 0"/></clipPath><clipPath id="aA"><path d="M258.672 188.906c-.149 3.223-1.496 4.871-2.469 5.469-.601.375-1.273.523-2.098.375-1.05-.227-2.921-1.273-3.52-2.172q-.786-.9-.675-2.023c.074-1.121.973-3.07 1.723-3.82.523-.524 1.199-.825 1.949-.9 1.121-.073 3.969 1.274 3.969 1.274"/></clipPath><clipPath id="aC"><path d="M.883.809h8.793v9.027H.883Zm0 0"/></clipPath><clipPath id="aD"><path d="M9.672 3.906C9.523 7.13 8.176 8.777 7.203 9.375c-.601.375-1.273.523-2.098.375-1.05-.227-2.921-1.273-3.52-2.172-.522-.601-.75-1.273-.675-2.023.074-1.121.973-3.07 1.723-3.82.523-.524 1.199-.825 1.949-.9C5.703.763 8.551 2.11 8.551 2.11"/></clipPath><clipPath id="aB"><path d="M0 0h10v10H0z"/></clipPath><clipPath id="aE"><path d="M249.16 184.86h41.703v24.644H249.16Zm0 0"/></clipPath><clipPath id="aF"><path d="M255.676 185.164c30.633 13.629 32.129 14.305 33.328 15.5.824.824 1.422 1.649 1.648 2.621.223.977.223 2.25-.226 3.223-.672 1.12-2.395 2.547-3.668 2.844-1.051.3-2.246 0-3.145-.45-.898-.449-1.875-1.273-2.25-2.246-.449-1.199-.37-3.445.153-4.644.449-.973 1.496-1.719 2.394-2.094s2.172-.602 3.149-.227c1.195.375 2.918 1.95 3.441 3.07.45.973.375 2.247.078 3.223-.3.973-.976 2.02-1.875 2.543-1.121.676-2.469.977-4.566.602-6.14-.973-29.059-12.36-33.102-16.027-1.2-1.047-1.574-1.723-1.722-2.77-.227-.977 0-2.324.523-3.223.523-.898 1.574-1.722 2.547-2.097.972-.297 3.293.152 3.293.152"/></clipPath><clipPath id="aH"><path d="M.16.86h41.703v24.644H.16Zm0 0"/></clipPath><clipPath id="aI"><path d="M6.676 1.164c30.633 13.629 32.129 14.305 33.328 15.5.824.824 1.422 1.648 1.648 2.621.223.977.223 2.25-.226 3.223-.672 1.12-2.395 2.547-3.668 2.844-1.051.3-2.246 0-3.145-.45-.898-.449-1.875-1.273-2.25-2.246-.449-1.199-.37-3.445.153-4.644.449-.973 1.496-1.719 2.394-2.094s2.172-.602 3.149-.227c1.195.375 2.918 1.95 3.441 3.07.45.973.375 2.247.078 3.223-.3.973-.976 2.02-1.875 2.543-1.121.676-2.469.977-4.566.602-6.14-.973-29.059-12.36-33.102-16.027C.835 8.055.461 7.379.312 6.332c-.226-.977 0-2.324.524-3.223.523-.898 1.574-1.722 2.547-2.097.972-.297 3.293.152 3.293.152"/></clipPath><clipPath id="aG"><path d="M0 0h42v26H0z"/></clipPath><clipPath id="aJ"><path d="M281.09 199.57h10.445V243H281.09Zm0 0"/></clipPath><clipPath id="aK"><path d="M291.25 204.184c-.824 37.37-2.098 38.195-3.293 38.644-.977.3-2.172.152-3.07-.223-.903-.3-1.875-1.125-2.399-1.949-.523-.898-.75-2.097-.675-3.07.152-.973.527-2.098 1.351-2.77.899-.898 2.992-1.574 4.266-1.5 1.05.079 2.097.75 2.773 1.5.672.672 1.274 1.723 1.274 2.77.074 1.273-.676 3.371-1.649 4.27-1.05.824-3.223 1.199-4.492.972-.977-.223-1.95-.973-2.547-1.797-.601-.75-.75-1.347-.976-2.922-.82-5.164-1.196-30.03.375-34.972.449-1.575.976-2.172 1.875-2.696.824-.601 2.171-.972 3.144-.824 1.047.149 2.246.75 2.922 1.496.672.825 1.121 3.07 1.121 3.07"/></clipPath><clipPath id="aM"><path d="M.09.57h10.445V44H.09Zm0 0"/></clipPath><clipPath id="aN"><path d="M10.25 5.184c-.824 37.37-2.098 38.195-3.293 38.644-.977.3-2.172.152-3.07-.223-.903-.3-1.875-1.125-2.399-1.949-.523-.898-.75-2.097-.675-3.07.152-.973.527-2.098 1.351-2.77.898-.898 2.992-1.574 4.266-1.5 1.05.079 2.097.75 2.773 1.5.672.672 1.274 1.723 1.274 2.77.074 1.273-.676 3.371-1.649 4.27-1.05.824-3.223 1.199-4.492.972-.977-.223-1.95-.973-2.547-1.797-.601-.75-.75-1.347-.976-2.922-.82-5.164-1.196-30.03.375-34.972.449-1.574.976-2.172 1.875-2.696C3.887.84 5.233.47 6.207.617c1.047.149 2.246.75 2.922 1.496.672.825 1.121 3.07 1.121 3.07"/></clipPath><clipPath id="aL"><path d="M0 0h11v44H0z"/></clipPath><clipPath id="aT"><path d="M155.387 234.281h133.426v77.965H155.387Zm0 0"/></clipPath><clipPath id="aU"><path d="M157.945 303.328c73.918-39.406 113.832-65.73 123.57-68.195 2.32-.54 3.446-.383 4.567.156.977.461 1.797 1.309 2.098 2.387.449 1.23.226 3.46-.375 4.617-.45 1-1.496 1.691-2.395 2.078-.898.309-2.098.461-3.07.078-1.2-.465-2.774-2.156-3.297-3.312-.375-1-.375-2.23.074-3.23.524-1.157 2.246-2.696 3.445-3.157.973-.309 2.172-.156 3.07.309.9.382 1.876 1.23 2.325 2.078.523.922.746 2.152.598 3.156-.149 1-.227 1.613-1.348 2.848-5.992 6.386-50.55 29.324-73.02 41.562-18.945 10.313-45.832 26.094-52.949 27.402-1.644.31-2.32.075-3.218-.386s-1.872-1.54-2.172-2.54c-.375-.925-.375-2.308-.075-3.308.375-1.004 2.172-2.543 2.172-2.543"/></clipPath><clipPath id="aW"><path d="M.387.395H133.78v77.851H.387Zm0 0"/></clipPath><clipPath id="aX"><path d="M2.945 69.328c73.918-39.406 113.832-65.73 123.57-68.195 2.32-.54 3.446-.383 4.567.156.977.461 1.797 1.309 2.098 2.387.449 1.23.226 3.46-.375 4.617-.45 1-1.496 1.691-2.395 2.078-.898.309-2.097.461-3.07.078-1.2-.465-2.774-2.156-3.297-3.312-.375-1-.375-2.23.074-3.23.524-1.157 2.246-2.696 3.445-3.157.973-.309 2.172-.156 3.07.309.9.382 1.876 1.23 2.325 2.078.523.922.746 2.152.598 3.156-.149 1-.227 1.613-1.348 2.848-5.992 6.386-50.55 29.324-73.02 41.562C40.243 61.016 13.356 76.797 6.239 78.105c-1.644.31-2.32.075-3.218-.386s-1.872-1.54-2.172-2.54c-.375-.925-.375-2.308-.075-3.308.375-1.004 2.172-2.543 2.172-2.543"/></clipPath><clipPath id="aV"><path d="M0 0h134v79H0z"/></clipPath><clipPath id="bd"><path d="M57.406 253.188h103.246v59.21H57.406Zm0 0"/></clipPath><clipPath id="be"><path d="M64.602 253.922c72.804 39.918 89.91 46.582 93.972 50.027 1.172.973 1.563 1.422 1.797 2.399.234 1.195-.156 3.218-.86 4.191-.624.824-1.64 1.348-2.577 1.574-.938.223-2.188.149-3.047-.226-.938-.375-1.875-1.121-2.266-2.02-.547-1.05-.703-3.148-.078-4.27.547-1.124 2.344-2.32 3.672-2.472 1.25-.148 3.281.676 4.14 1.5.782.672 1.172 1.797 1.172 2.695.078.899-.234 2.098-.703 2.844-.547.75-1.484 1.5-2.422 1.797-.937.3-1.484.453-3.047.078-7.578-1.723-44.289-22.32-61.71-31.754-12.965-7.039-29.915-15.055-33.743-19.098-1.093-1.125-1.328-1.875-1.406-2.921-.156-.973.234-2.32.938-3.145.625-.824 1.796-1.5 2.812-1.723 1.094-.226 3.356.524 3.356.524"/></clipPath><clipPath id="bg"><path d="M.406.188h103.246v59.21H.406Zm0 0"/></clipPath><clipPath id="bh"><path d="M7.602.922c72.804 39.918 89.91 46.582 93.972 50.027 1.172.973 1.563 1.422 1.797 2.399.234 1.195-.156 3.218-.86 4.191-.624.824-1.64 1.348-2.577 1.574-.938.223-2.188.149-3.047-.226-.938-.375-1.875-1.121-2.266-2.02-.547-1.05-.703-3.148-.078-4.27.547-1.124 2.344-2.32 3.672-2.472 1.25-.148 3.281.676 4.14 1.5.782.672 1.172 1.797 1.172 2.695.078.899-.234 2.098-.703 2.844-.547.75-1.484 1.5-2.422 1.797-.937.3-1.484.453-3.047.078-7.578-1.723-44.289-22.32-61.71-31.754C22.68 20.246 5.73 12.23 1.902 8.188.81 7.062.574 6.312.496 5.265c-.156-.973.234-2.32.938-3.145C2.059 1.296 3.23.62 4.246.397 5.34.172 7.602.922 7.602.922"/></clipPath><clipPath id="bf"><path d="M0 0h104v60H0z"/></clipPath><clipPath id="bn"><path d="M131.926 50.21h106.047v12.36H131.926Zm0 0"/></clipPath><clipPath id="bo"><path d="M136.598 53.129c64.105-2.469 90.242-3.52 96.609-2.543 1.57.223 2.094.297 2.844.973.972.824 1.949 2.77 1.87 4.043-.073 1.347-1.269 3.144-2.245 3.82a4.34 4.34 0 0 1-2.996.672c-.973-.074-2.094-.598-2.77-1.274-.75-.672-1.273-1.722-1.422-2.695-.152-.973-.074-2.172.45-2.996.671-1.047 2.468-2.32 3.742-2.543a4.34 4.34 0 0 1 2.996.672c.976.75 2.097 2.62 2.246 3.82a3.93 3.93 0 0 1-.82 2.996c-.75.973-1.801 1.496-3.895 2.098-7.117 1.719-32.129-.227-48.23.148-16.102.301-42.09 3.07-48.532 1.946-1.648-.297-2.246-.524-2.996-1.196-.746-.675-1.347-1.875-1.496-2.922-.074-.972.149-2.32.824-3.144.75-.899 3.82-1.875 3.82-1.875"/></clipPath><clipPath id="bq"><path d="M.926.21h106.047v12.36H.926Zm0 0"/></clipPath><clipPath id="br"><path d="M5.598 3.129C69.703.66 95.84-.391 102.207.586c1.57.223 2.094.297 2.844.973.972.824 1.949 2.77 1.87 4.043-.073 1.347-1.269 3.144-2.245 3.82a4.34 4.34 0 0 1-2.996.672c-.973-.074-2.094-.598-2.77-1.274-.75-.672-1.273-1.722-1.422-2.695-.152-.973-.074-2.172.45-2.996.671-1.047 2.468-2.32 3.742-2.543a4.34 4.34 0 0 1 2.996.672c.976.75 2.097 2.62 2.246 3.82a3.93 3.93 0 0 1-.82 2.996c-.75.973-1.801 1.496-3.895 2.098-7.117 1.719-32.129-.227-48.23.148-16.102.301-42.09 3.07-48.532 1.946-1.648-.297-2.246-.524-2.996-1.196-.746-.675-1.347-1.875-1.496-2.922-.074-.972.149-2.32.824-3.144.75-.899 3.82-1.875 3.82-1.875"/></clipPath><clipPath id="bp"><path d="M0 0h107v13H0z"/></clipPath><clipPath id="bs"><path d="M180.172 96.625h73.976v38.098h-73.976Zm0 0"/></clipPath><clipPath id="bt"><path d="M181.46 130.344c60.813-30.258 67.33-33.625 70.099-33.625.972 0 1.574.37 1.945.82.375.3.601.824.527 1.352-.078.671-.898 1.945-1.574 2.246-.598.222-1.648.074-2.098-.375-.523-.524-.972-2.024-.672-2.696.223-.675 1.645-1.347 2.32-1.347.677 0 1.575.597 1.798 1.195.226.676.226 1.797-.524 2.695-2.398 3.075-15.953 6.368-25.613 10.86-12.805 6.066-38.941 21.793-44.262 22.992-1.12.226-1.57.152-2.094-.074-.453-.301-.902-.825-1.05-1.274s-.075-1.12.074-1.57c.226-.45 1.125-1.2 1.125-1.2"/></clipPath><clipPath id="bv"><path d="M.172.625h73.976v38.078H.172Zm0 0"/></clipPath><clipPath id="bw"><path d="M1.46 34.344C62.274 4.086 68.79.719 71.56.719c.972 0 1.574.37 1.945.82.375.3.601.824.527 1.352-.078.672-.898 1.945-1.574 2.246-.598.222-1.648.074-2.098-.375-.523-.524-.972-2.024-.671-2.696.222-.675 1.644-1.347 2.32-1.347s1.574.597 1.797 1.195c.226.676.226 1.797-.524 2.695-2.398 3.075-15.953 6.368-25.613 10.86C34.863 21.535 8.727 37.262 3.406 38.46c-1.12.227-1.57.152-2.093-.074-.454-.301-.903-.825-1.051-1.274-.149-.449-.075-1.12.074-1.57.226-.45 1.125-1.2 1.125-1.2"/></clipPath><clipPath id="bu"><path d="M0 0h75v39H0z"/></clipPath><clipPath id="bx"><path d="M182.27 166.078h72.39v39.469h-72.39Zm0 0"/></clipPath><clipPath id="by"><path d="M183.406 201.191c69.352-35.273 69.875-34.976 70.324-34.675.45.3.75.75.75 1.273.075.672-.527 2.172-1.125 2.547-.523.375-1.574.223-2.171 0-.45-.152-.825-.602-.973-1.05-.227-.45-.375-.974-.227-1.497.227-.523.825-1.422 1.426-1.648.672-.223 2.172.226 2.695.75.45.449.598 1.422.375 2.097-.527 1.196-2.171 2.02-4.792 3.668-9.063 5.692-58.567 31.453-64.485 32.653-.898.226-1.121.148-1.57-.075a2.74 2.74 0 0 1-1.125-1.125c-.223-.523-.223-1.12-.074-1.644.148-.453.972-1.274.972-1.274"/></clipPath><clipPath id="bA"><path d="M.27.078h72.39v39.469H.27Zm0 0"/></clipPath><clipPath id="bB"><path d="M1.406 35.191C70.758-.082 71.281.215 71.73.516c.45.3.75.75.75 1.273.075.672-.527 2.172-1.125 2.547-.523.375-1.574.223-2.171 0-.45-.152-.825-.602-.973-1.05-.227-.45-.375-.973-.227-1.497.227-.523.825-1.422 1.426-1.648.672-.223 2.172.226 2.695.75.45.449.598 1.422.375 2.097-.527 1.196-2.171 2.02-4.793 3.668C58.626 12.348 9.121 38.11 3.204 39.31c-.898.226-1.121.148-1.57-.075A2.74 2.74 0 0 1 .508 38.11c-.223-.523-.223-1.12-.074-1.644.148-.453.972-1.274.972-1.274"/></clipPath><clipPath id="bz"><path d="M0 0h73v40H0z"/></clipPath><clipPath id="bC"><path d="M178.645 130.04h5.847v76.023h-5.847Zm0 0"/></clipPath><clipPath id="bD"><path d="M184.457 132.29c-.45 72.57-.676 72.944-1.2 73.32-.523.374-1.573.523-2.171.222-.676-.223-1.348-1.047-1.496-1.648-.078-.672.148-1.645.597-2.094.45-.528 1.497-.824 2.098-.75.672.148 1.496.75 1.797 1.347.223.598.223 1.649-.148 2.172-.301.598-1.274 1.047-1.875 1.2-.524 0-1.047-.153-1.422-.45-.524-.375-.75-.75-1.047-1.949-1.649-6.664-.75-65.379.37-71.37.153-.9.227-1.122.602-1.497s1.348-.75 1.946-.75c.523.074 1.05.375 1.426.75.296.375.523 1.496.523 1.496"/></clipPath><clipPath id="bF"><path d="M.645.04h5.847v76.023H.645Zm0 0"/></clipPath><clipPath id="bG"><path d="M6.457 2.29c-.45 72.57-.676 72.944-1.2 73.32-.523.374-1.573.523-2.171.222-.676-.223-1.348-1.047-1.496-1.648-.078-.672.148-1.645.597-2.094.45-.528 1.497-.824 2.098-.75.672.148 1.496.75 1.797 1.347.223.598.223 1.649-.148 2.172-.301.598-1.274 1.047-1.875 1.2-.524 0-1.047-.153-1.422-.45-.524-.375-.75-.75-1.047-1.949-1.65-6.664-.75-65.379.37-71.37.153-.9.228-1.122.603-1.497.374-.375 1.347-.75 1.945-.75.523.074 1.05.375 1.426.75.296.375.523 1.496.523 1.496"/></clipPath><clipPath id="bE"><path d="M0 0h7v77H0z"/></clipPath><clipPath id="bH"><path d="M249.914 97.371h7.004v72.781h-7.004Zm0 0"/></clipPath><clipPath id="bI"><path d="M255.004 99.414c.824 59.387 2.32 65.754 1.797 68.45-.227.972-.524 1.495-1.047 1.87-.527.301-1.5.45-2.098.227-.601-.227-1.199-1.05-1.347-1.649-.153-.597.148-1.574.523-2.023.45-.45 1.422-.824 2.023-.672.598.074 1.422.672 1.72 1.274.226.597.226 1.57-.15 2.097-.3.524-1.198 1.047-1.796 1.121-.45.075-1.047-.074-1.422-.375-.45-.375-.676-.746-.973-1.87-1.722-6.442-3.074-62.833-1.722-68.524.222-.903.37-1.125.746-1.426.449-.375 1.05-.598 1.574-.523.45 0 1.121.226 1.496.523.375.375.676 1.5.676 1.5"/></clipPath><clipPath id="bK"><path d="M.914.371h7.004v72.781H.914Zm0 0"/></clipPath><clipPath id="bL"><path d="M6.004 2.414c.824 59.387 2.32 65.754 1.797 68.45-.227.972-.524 1.495-1.047 1.87-.527.301-1.5.45-2.098.227-.601-.227-1.199-1.05-1.347-1.648-.153-.598.148-1.575.523-2.024.45-.45 1.422-.824 2.023-.672.598.074 1.422.672 1.72 1.274.226.597.226 1.57-.15 2.097-.3.524-1.198 1.047-1.796 1.121-.45.075-1.047-.074-1.422-.375-.45-.375-.676-.746-.973-1.87C1.512 64.421.16 8.03 1.512 2.34c.222-.902.37-1.125.746-1.426C2.707.54 3.308.316 3.832.391c.45 0 1.121.226 1.496.523.375.375.676 1.5.676 1.5"/></clipPath><clipPath id="bJ"><path d="M0 0h8v74H0z"/></clipPath><clipPath id="bM"><path d="M189.043 203.719h10.547v8.82h-10.547Zm0 0"/></clipPath><clipPath id="bN"><path d="M189.996 208.453c8.316-4.719 9.363-3.742 9.512-2.996.226.75-.524 2.172-1.121 2.547-.524.375-1.575.375-2.172.074-.524-.297-1.125-1.121-1.274-1.797-.074-.597.375-1.57.825-2.02.297-.3.824-.527 1.347-.527.598 0 1.57.301 1.946.825.449.601.527 1.875.074 2.847-.746 1.57-4.793 4.043-6.363 4.719-.825.375-1.575.523-2.098.297-.524-.074-1.047-.524-1.274-.973-.3-.449-.375-1.12-.3-1.648.152-.45.898-1.348.898-1.348"/></clipPath><clipPath id="bP"><path d="M.043.723H10.59v8.816H.043Zm0 0"/></clipPath><clipPath id="bQ"><path d="M.996 5.453C9.313.734 10.36 1.711 10.508 2.457c.226.75-.524 2.172-1.121 2.547-.524.375-1.575.375-2.172.074C6.69 4.781 6.09 3.957 5.94 3.281c-.074-.597.375-1.57.825-2.02.297-.3.824-.527 1.347-.527.598 0 1.57.301 1.946.825.449.601.527 1.875.074 2.847C9.387 5.976 5.34 8.45 3.77 9.125c-.825.375-1.575.523-2.098.297-.524-.074-1.047-.524-1.274-.973-.3-.449-.375-1.12-.3-1.648.152-.45.898-1.348.898-1.348"/></clipPath><clipPath id="bO"><path d="M0 0h11v10H0z"/></clipPath><clipPath id="bR"><path d="M190.223 146.223h55.367v35.718h-55.367Zm0 0"/></clipPath><clipPath id="bS"><path d="M194.566 169.21c3.07 5.767 3.668 6.368 4.418 6.817.75.524 1.723.899 2.621.973.899.148 1.95-.074 2.922-.375 1.047-.375 2.024-.898 3.145-1.723 1.422-1.12 3.297-3.07 4.644-4.793 1.348-1.648 2.47-3.52 3.52-5.543 1.121-2.171 1.57-5.84 2.844-7.113.824-.824 2.023-1.348 2.847-1.2.825.075 1.575.9 2.246 1.876.973 1.57 1.125 6.14 2.172 7.488.676.75 1.422 1.121 2.246 1.2.825.148 1.723-.079 2.696-.45 1.273-.527 2.922-1.722 4.195-2.996 1.348-1.348 2.695-2.848 3.594-4.945 1.273-2.844.976-9.285 2.25-11.008.597-.824 1.347-1.125 2.02-1.125.75-.074 1.796.45 2.097 1.05.45.673.375 2.395-.074 3.071-.45.524-1.5.899-2.172.899-.676-.075-1.723-.676-1.95-1.348-.374-.676-.074-2.399.45-2.996.45-.524 1.574-.824 2.25-.676.672.152 1.422.676 1.797 1.5.597 1.496-.153 5.316-.602 7.637-.375 2.023-.746 3.597-1.722 5.468-1.274 2.395-3.97 5.618-5.915 7.415-1.425 1.273-2.773 2.171-4.343 2.769-1.575.527-3.371 1.05-5.02.75-1.722-.223-3.82-1.348-5.168-2.695-1.347-1.348-2.32-3.746-2.77-5.469-.374-1.273-.75-3.293-.226-3.668.453-.3 2.473.45 2.774 1.348.597 1.87-3.895 8.613-6.368 11.832-2.172 2.773-4.793 5.394-7.261 6.816-2.098 1.2-4.422 1.797-6.442 1.871-1.875 0-3.894-.597-5.469-1.496-1.496-.898-2.695-2.246-3.742-3.894-1.273-1.875-3.148-5.618-2.773-7.04.226-.824 1.348-1.574 2.098-1.574.675-.074 2.171 1.348 2.171 1.348"/></clipPath><clipPath id="bU"><path d="M.223.223H55.59v35.691H.223Zm0 0"/></clipPath><clipPath id="bV"><path d="M4.566 23.21c3.07 5.767 3.668 6.368 4.418 6.817.75.524 1.723.899 2.621.973.899.148 1.95-.074 2.922-.375 1.047-.375 2.024-.898 3.145-1.723 1.422-1.12 3.297-3.07 4.644-4.793 1.348-1.648 2.47-3.52 3.52-5.543 1.121-2.171 1.57-5.84 2.844-7.113.824-.824 2.023-1.348 2.847-1.2.825.075 1.575.9 2.246 1.876.973 1.57 1.125 6.14 2.172 7.488.676.75 1.422 1.121 2.246 1.2.825.148 1.723-.079 2.696-.45 1.273-.527 2.922-1.722 4.195-2.996 1.348-1.348 2.695-2.848 3.594-4.945 1.273-2.844.976-9.285 2.25-11.008.597-.824 1.347-1.125 2.02-1.125.75-.074 1.796.45 2.097 1.05.45.673.375 2.395-.074 3.071-.45.524-1.5.899-2.172.899-.676-.075-1.723-.676-1.95-1.348-.374-.676-.074-2.399.45-2.996.45-.524 1.574-.824 2.25-.676.672.152 1.422.676 1.797 1.5.597 1.496-.153 5.316-.602 7.637-.375 2.023-.746 3.597-1.722 5.468-1.274 2.395-3.97 5.618-5.915 7.415-1.425 1.273-2.773 2.171-4.343 2.769-1.575.527-3.371 1.05-5.02.75-1.722-.223-3.82-1.348-5.168-2.695-1.347-1.348-2.32-3.746-2.77-5.469-.374-1.273-.75-3.293-.226-3.668.453-.3 2.473.45 2.774 1.348.597 1.87-3.895 8.613-6.368 11.832-2.172 2.773-4.793 5.394-7.261 6.816-2.098 1.2-4.422 1.797-6.442 1.871-1.875 0-3.894-.597-5.469-1.496-1.496-.898-2.695-2.246-3.742-3.894-1.273-1.875-3.148-5.618-2.773-7.04.226-.824 1.348-1.574 2.098-1.574.675-.074 2.171 1.348 2.171 1.348"/></clipPath><clipPath id="bT"><path d="M0 0h56v36H0z"/></clipPath><clipPath id="bW"><path d="M196.813 139.797h11.492v11.289h-11.493Zm0 0"/></clipPath><clipPath id="bX"><path d="M202.055 143.148c-.149 2.399 1.05 2.325 1.05 2.622.075.3-1.125 1.347-1.8 1.425-.82.075-2.32-.675-2.77-1.425-.3-.598-.222-1.723.149-2.32.3-.598 1.273-1.274 1.949-1.274.824.074 2.32.972 2.547 1.722.297.75-.301 2.395-.899 2.844-.523.453-1.722.528-2.324.301-.523-.148-1.047-.523-1.273-.973-.297-.597-.45-1.574-.149-2.398.45-1.195 2.621-3.219 3.895-3.668 1.047-.3 2.172-.149 2.996.223a4.6 4.6 0 0 1 2.172 1.949c.523.898.75 2.172.597 3.297-.297 1.496-1.273 3.668-2.547 4.566-1.27.899-3.593 1.2-4.941.973a3.75 3.75 0 0 1-2.32-1.274c-.676-.672-1.274-1.945-1.5-2.918-.149-.898.078-1.722.226-2.62.149-.825.223-1.876.598-2.548.375-.523 1.125-1.125 1.723-1.273.675-.074 1.648.223 2.023.672.45.449.598 2.097.598 2.097"/></clipPath><clipPath id="bZ"><path d="M.813.797h11.492v11.289H.813Zm0 0"/></clipPath><clipPath id="ca"><path d="M6.055 4.148c-.149 2.399 1.05 2.325 1.05 2.622.075.3-1.125 1.347-1.8 1.425-.82.075-2.32-.675-2.77-1.425-.3-.598-.223-1.723.149-2.32.3-.598 1.273-1.274 1.949-1.274.824.074 2.32.972 2.547 1.722.297.75-.301 2.395-.899 2.844-.523.453-1.722.528-2.324.301-.523-.148-1.047-.523-1.273-.973-.297-.597-.45-1.574-.149-2.398.45-1.195 2.621-3.219 3.895-3.668 1.047-.3 2.172-.149 2.996.223a4.6 4.6 0 0 1 2.172 1.949c.523.898.75 2.172.597 3.297-.297 1.496-1.273 3.668-2.547 4.566-1.27.899-3.593 1.2-4.941.973a3.75 3.75 0 0 1-2.32-1.274c-.676-.672-1.274-1.945-1.5-2.918-.149-.898.078-1.722.226-2.62.149-.825.223-1.876.598-2.548.375-.523 1.125-1.125 1.723-1.273.675-.074 1.648.223 2.023.672.45.449.598 2.097.598 2.097"/></clipPath><clipPath id="bY"><path d="M0 0h13v13H0z"/></clipPath><clipPath id="cb"><path d="M229 124.184h11.469v11.289H229Zm0 0"/></clipPath><clipPath id="cc"><path d="M234.223 127.535c-.153 2.395 1.047 2.32 1.047 2.621.074.301-1.125 1.348-1.797 1.422-.825.074-2.32-.672-2.77-1.422-.3-.601-.226-1.722.149-2.32.3-.602 1.273-1.273 1.945-1.273.824.074 2.324.972 2.547 1.722.3.746-.297 2.395-.899 2.844-.523.45-1.722.523-2.32.3-.523-.152-1.05-.523-1.273-.972-.301-.602-.45-1.574-.149-2.398.45-1.2 2.621-3.22 3.89-3.668a4.48 4.48 0 0 1 2.997.222 4.6 4.6 0 0 1 2.172 1.95c.527.898.75 2.171.601 3.292-.3 1.5-1.273 3.672-2.547 4.57-1.273.9-3.593 1.196-4.941.973-.977-.148-1.723-.597-2.324-1.273-.672-.676-1.274-1.95-1.496-2.922-.153-.898.074-1.723.222-2.621.153-.824.227-1.871.602-2.547.371-.523 1.121-1.12 1.723-1.273.671-.075 1.644.226 2.02.675.448.45.6 2.098.6 2.098"/></clipPath><clipPath id="ce"><path d="M0 .184h11.469v11.289H0Zm0 0"/></clipPath><clipPath id="cf"><path d="M5.223 3.535C5.07 5.93 6.27 5.855 6.27 6.156c.074.301-1.125 1.348-1.797 1.422-.825.074-2.32-.672-2.77-1.422-.3-.601-.226-1.722.149-2.32.3-.602 1.273-1.273 1.945-1.273.824.074 2.324.972 2.547 1.722.3.746-.297 2.395-.899 2.844-.523.45-1.722.523-2.32.3-.523-.152-1.05-.523-1.273-.972-.301-.602-.45-1.574-.149-2.398.45-1.2 2.621-3.22 3.89-3.668A4.48 4.48 0 0 1 8.59.613c.898.375 1.723 1.125 2.172 1.95.527.898.75 2.171.601 3.292-.3 1.5-1.273 3.672-2.547 4.57-1.273.9-3.593 1.196-4.941.973-.977-.148-1.723-.597-2.324-1.273C.879 9.449.277 8.175.055 7.203c-.153-.898.074-1.723.222-2.621.153-.824.227-1.871.602-2.547C1.25 1.512 2 .915 2.602.762c.671-.075 1.644.226 2.02.676.448.449.6 2.097.6 2.097"/></clipPath><clipPath id="cd"><path d="M0 0h12v12H0z"/></clipPath><clipPath id="cg"><path d="M182.555 250.918h40.152v21.523h-40.152Zm0 0"/></clipPath><clipPath id="ch"><path d="M183.707 268.293c37.223-17.45 37.746-17.152 38.195-16.777.375.3.672.75.672 1.273 0 .676-.672 2.024-1.273 2.399-.598.296-1.645.148-2.094-.153a2.05 2.05 0 0 1-.977-1.12c-.148-.376-.222-.977-.074-1.427.227-.523.899-1.347 1.5-1.496.672-.148 2.094.375 2.543.899.375.375.453.898.375 1.347-.074.602-.297 1.125-1.047 1.797-3.593 3.223-31.304 17.375-36.398 17.3-1.348-.073-2.246-.67-2.469-1.347-.3-.675 1.047-2.695 1.047-2.695"/></clipPath><clipPath id="cj"><path d="M.555.918h40.152v21.523H.555Zm0 0"/></clipPath><clipPath id="ck"><path d="M1.707 18.293C38.93.843 39.453 1.141 39.902 1.516c.375.3.672.75.672 1.273 0 .676-.672 2.023-1.273 2.399-.598.296-1.645.148-2.094-.153a2.05 2.05 0 0 1-.977-1.12c-.148-.376-.222-.977-.074-1.427.227-.523.899-1.347 1.5-1.496.672-.148 2.094.375 2.543.899.375.375.453.898.375 1.347-.074.602-.297 1.125-1.047 1.797C35.934 8.258 8.223 22.41 3.13 22.335c-1.35-.072-2.247-.669-2.47-1.346-.3-.675 1.047-2.695 1.047-2.695"/></clipPath><clipPath id="ci"><path d="M0 0h41v23H0z"/></clipPath><clipPath id="cl"><path d="M256.148 224.965h10.442v13.84h-10.442Zm0 0"/></clipPath><clipPath id="cm"><path d="M260.621 226.953c.672 9.063 4.344 7.34 5.242 8.086.598.45.75 1.723.524 2.25-.301.598-1.496 1.121-2.098 1.121-.523-.074-1.273-.597-1.422-1.12-.226-.602.074-1.876.524-2.325.375-.375 1.273-.524 1.722-.375.598.226 1.422 1.273 1.422 1.875 0 .672-.598 1.496-1.422 1.87-1.422.673-6.215.599-7.562-.3-.75-.523-.824-1.347-1.051-2.469-.375-2.097-.523-7.566.375-9.136.523-.899 1.5-1.5 2.098-1.426s1.648 1.95 1.648 1.95"/></clipPath><clipPath id="co"><path d="M.148.965H10.59v13.84H.148Zm0 0"/></clipPath><clipPath id="cp"><path d="M4.621 2.953c.672 9.063 4.344 7.34 5.242 8.086.598.45.75 1.723.524 2.25-.301.598-1.496 1.121-2.098 1.121-.523-.074-1.273-.598-1.422-1.12-.226-.602.074-1.876.524-2.325.375-.375 1.273-.524 1.722-.375.598.226 1.422 1.273 1.422 1.875 0 .672-.598 1.496-1.422 1.87-1.422.673-6.215.599-7.562-.3C.8 13.512.727 12.687.5 11.566.125 9.47-.023 4 .875 2.43c.523-.899 1.5-1.5 2.098-1.426s1.648 1.95 1.648 1.95"/></clipPath><clipPath id="cn"><path d="M0 0h11v15H0z"/></clipPath><clipPath id="cq"><path d="M260.316 223.063h8.383v11.207h-8.383Zm0 0"/></clipPath><clipPath id="cr"><path d="M261.668 223.809c4.57-1.051 5.691-.825 6.215.074 1.05 1.422.902 6.664.375 8.387-.297.972-.899 1.796-1.496 1.945-.598.226-1.871-.371-2.246-.899-.375-.449-.45-1.421-.153-1.87.301-.598 1.5-1.2 2.172-1.122.602 0 1.274.598 1.5 1.121.223.524.149 1.422-.074 1.871-.227.375-.602.75-.977.825-.597.152-1.87 0-2.394-.598-.824-1.125.672-5.992-.149-6.664-.527-.375-1.875.824-2.546.598-.676-.227-1.5-.973-1.575-1.575-.074-.597 1.348-2.093 1.348-2.093"/></clipPath><clipPath id="ct"><path d="M.316.063H8.7V11.27H.316Zm0 0"/></clipPath><clipPath id="cu"><path d="M1.668.809c4.57-1.051 5.691-.825 6.215.074 1.05 1.422.902 6.664.375 8.387-.297.972-.899 1.796-1.496 1.945-.598.226-1.871-.371-2.246-.899-.375-.449-.45-1.421-.153-1.87.301-.598 1.5-1.2 2.172-1.122.602 0 1.274.598 1.5 1.121.223.524.149 1.422-.074 1.871-.227.375-.602.75-.977.825-.597.152-1.87 0-2.394-.598-.824-1.125.672-5.992-.149-6.664-.527-.375-1.875.824-2.546.598C1.219 4.25.395 3.504.32 2.902.246 2.305 1.668.81 1.668.81"/></clipPath><clipPath id="cs"><path d="M0 0h9v12H0z"/></clipPath><clipPath id="cv"><path d="M71.121 91.46h65.649v16.5H71.12Zm0 0"/></clipPath><clipPath id="cw"><path d="M73.316 91.473c55.645 11.683 60.512 12.058 62.313 13.406.746.601 1.195 1.426 1.121 1.95-.074.448-.973 1.046-1.496 1.12-.45 0-1.05-.375-1.274-.672-.226-.375-.3-1.05-.152-1.422.227-.453 1.125-1.05 1.649-.976.523.074 1.421 1.273 1.273 1.797-.074.527-.824 1.05-1.797 1.199-3.297.602-13.555-3.371-22.02-5.168-11.456-2.469-36.394-5.242-40.44-7.937-.973-.598-1.423-1.274-1.27-1.797.074-.598 2.093-1.5 2.093-1.5"/></clipPath><clipPath id="cy"><path d="M.121.46H65.77v16.5H.12Zm0 0"/></clipPath><clipPath id="cz"><path d="M2.316.473C57.961 12.156 62.828 12.53 64.63 13.879c.746.601 1.195 1.426 1.121 1.95-.074.448-.973 1.046-1.496 1.12-.45 0-1.05-.375-1.274-.672-.226-.375-.3-1.05-.152-1.422.227-.453 1.125-1.05 1.649-.976.523.074 1.421 1.273 1.273 1.797-.074.527-.824 1.05-1.797 1.199-3.297.602-13.555-3.371-22.02-5.168C30.478 9.238 5.54 6.465 1.494 3.77.52 3.172.07 2.496.222 1.973c.074-.598 2.093-1.5 2.093-1.5"/></clipPath><clipPath id="cx"><path d="M0 0h66v17H0z"/></clipPath><clipPath id="cA"><path d="M102.387 200.742h30.945v24.711h-30.945Zm0 0"/></clipPath><clipPath id="cB"><path d="M105.324 201.234c27.914 22.485 27.914 23.493 27.524 23.961-.387.387-2.016.309-2.48-.078-.388-.234-.544-1.008-.388-1.472.157-.543 1.008-1.32 1.551-1.32.543-.079 1.473.62 1.707 1.163.153.387.078 1.239-.312 1.551-.387.387-1.238.543-2.403.23-4.343-1.238-25.277-17.289-27.527-21.167-.621-1.008-.621-1.86-.387-2.403.235-.465 1.008-.773 1.473-.851s1.242.386 1.242.386"/></clipPath><clipPath id="cD"><path d="M.387.742h30.945v24.711H.387Zm0 0"/></clipPath><clipPath id="cE"><path d="M3.324 1.234C31.238 23.72 31.238 24.727 30.848 25.195c-.387.387-2.016.309-2.48-.078-.388-.234-.544-1.008-.388-1.472.157-.543 1.008-1.32 1.551-1.32.543-.079 1.473.62 1.707 1.163.153.387.078 1.239-.312 1.551-.387.387-1.238.543-2.403.23C24.18 24.032 3.246 7.98.996 4.103.375 3.094.375 2.242.61 1.699.844 1.234 1.617.926 2.082.848s1.242.386 1.242.386"/></clipPath><clipPath id="cC"><path d="M0 0h32v26H0z"/></clipPath><clipPath id="b"><path d="M0 0h343v354H0z"/></clipPath><clipPath id="V"><path d="M270 68.2h11.313v109.468H270Zm0 0"/></clipPath><clipPath id="W"><path d="M271.105 173.031c.301-68.527-1.796-93.539-.824-99.832.223-1.644.301-2.172.973-2.992.898-.977 2.922-1.875 4.195-1.95 1.047 0 2.172.45 2.922 1.2.899.898 1.871 2.922 1.723 4.27-.153 1.347-1.5 3.144-2.547 3.816-.899.602-2.098.75-3.149.527-1.27-.3-3.07-1.648-3.668-2.773-.523-.973-.597-2.172-.375-3.145.227-.972.899-2.097 1.649-2.695.75-.676 1.945-1.125 2.922-1.2.972-.073 2.246.302 3.07.825.824.598 1.348.973 1.871 2.547 2.246 6.441 1.047 38.793 1.047 56.691.078 16.102 1.125 39.993-.746 45.832-.527 1.575-1.05 2.098-1.875 2.7-.824.523-2.094.898-3.145.746-.972-.149-2.171-.746-2.843-1.496-.676-.75-1.2-3.07-1.2-3.07"/></clipPath><clipPath id="X"><path d="M0 0h12v110H0Z"/></clipPath><clipPath id="Y"><path d="M0 .2h11.313v109.468H0Zm0 0"/></clipPath><clipPath id="Z"><path d="M1.105 105.031C1.406 36.504-.69 11.492.281 5.2c.223-1.644.301-2.172.973-2.992C2.152 1.23 4.176.332 5.449.257c1.047 0 2.172.45 2.922 1.2.899.898 1.871 2.922 1.723 4.27-.153 1.347-1.5 3.144-2.547 3.816-.899.602-2.098.75-3.149.527-1.27-.3-3.07-1.648-3.668-2.773C.207 6.324.133 5.125.355 4.152c.227-.972.899-2.097 1.649-2.695.75-.676 1.945-1.125 2.922-1.2.972-.073 2.246.302 3.07.825.824.598 1.348.973 1.871 2.547 2.246 6.441 1.047 38.793 1.047 56.691.078 16.102 1.125 39.993-.746 45.832-.527 1.575-1.05 2.098-1.875 2.7-.824.523-2.094.898-3.145.746-.972-.149-2.171-.746-2.843-1.496-.676-.75-1.2-3.07-1.2-3.07"/></clipPath><clipPath id="L"><path d="M163.031 171.145H277v68.628H163.031Zm0 0"/></clipPath><clipPath id="M"><path d="M165.36 231.223c103.574-58.942 104.695-59.84 106.343-59.989 1.125-.152 2.098 0 2.922.598 1.047.75 2.246 2.473 2.32 3.82.075 1.274-.824 3.22-1.87 3.97-1.048.823-3.145 1.046-4.345.75-.972-.227-1.87-1.052-2.394-1.798-.527-.824-.977-1.949-.824-2.922.148-1.199 1.12-3.144 2.246-3.82 1.12-.672 3.293-.672 4.418-.223a4.1 4.1 0 0 1 2.246 2.094c.45 1.125.45 3.297 0 4.422-.45.898-.973 1.195-2.246 2.02-3.746 2.695-14.453 7.34-25.09 13.183-19.098 10.484-70.172 42.461-79.082 45.758-1.649.598-2.172.746-3.149.523-1.195-.3-2.77-1.574-3.292-2.62-.524-.973-.524-2.247-.153-3.223.3-.973 1.95-2.543 1.95-2.543"/></clipPath><clipPath id="N"><path d="M0 0h114v69H0Z"/></clipPath><clipPath id="O"><path d="M.031.145H114v68.628H.031Zm0 0"/></clipPath><clipPath id="P"><path d="M2.36 60.223C105.933 1.28 107.054.383 108.702.234c1.125-.152 2.098 0 2.922.598 1.047.75 2.246 2.473 2.32 3.82.075 1.274-.824 3.22-1.87 3.97-1.048.823-3.145 1.046-4.345.75-.972-.227-1.87-1.052-2.394-1.798-.527-.824-.977-1.949-.824-2.922.148-1.199 1.12-3.144 2.246-3.82 1.12-.672 3.293-.672 4.418-.223a4.1 4.1 0 0 1 2.246 2.094c.45 1.125.45 3.297 0 4.422-.45.898-.973 1.195-2.246 2.02-3.746 2.695-14.453 7.34-25.09 13.183C66.988 32.813 15.914 64.79 7.004 68.086c-1.649.598-2.172.746-3.149.523-1.195-.3-2.77-1.574-3.292-2.62-.524-.973-.524-2.247-.153-3.223.3-.973 1.95-2.543 1.95-2.543"/></clipPath><clipPath id="af"><path d="M228.852 50.734h51.039v26.914h-51.04zm0 0"/></clipPath><clipPath id="ag"><path d="M234.82 50.809c28.61 10.933 38.868 15.129 42.164 17.375 1.274.824 1.797 1.347 2.246 2.171.45.899.676 2.098.45 3.145-.375 1.2-1.797 2.996-2.922 3.594-.899.449-2.094.601-3.07.226-1.196-.375-2.997-1.797-3.446-3.07s0-3.445.602-4.492c.523-.903 1.496-1.649 2.547-1.875 1.273-.223 3.445.152 4.492.898.898.528 1.496 1.649 1.722 2.621.223.977.149 2.172-.226 3.07-.45.9-1.195 1.95-2.094 2.4-1.2.523-2.473.523-4.57.073-5.766-1.125-22.39-10.785-30.106-13.855-4.644-1.871-9.363-2.32-11.535-3.895-1.12-.746-1.722-1.57-2.02-2.547-.3-.972-.226-2.32.15-3.293.448-.898 1.421-1.87 2.32-2.32.898-.375 3.296-.226 3.296-.226"/></clipPath><clipPath id="ah"><path d="M0 0h52v28H0Z"/></clipPath><clipPath id="ai"><path d="M.852.734H51.89v26.914H.85Zm0 0"/></clipPath><clipPath id="aj"><path d="M6.82.809c28.61 10.933 38.868 15.129 42.164 17.375 1.274.824 1.797 1.347 2.246 2.171.45.899.676 2.098.45 3.145-.375 1.2-1.797 2.996-2.922 3.594-.899.449-2.094.601-3.07.226-1.196-.375-2.997-1.797-3.446-3.07s0-3.445.602-4.492c.523-.903 1.496-1.649 2.547-1.875 1.273-.223 3.445.152 4.492.898.898.528 1.496 1.649 1.722 2.621.223.977.149 2.172-.226 3.07-.45.9-1.195 1.95-2.094 2.4-1.2.523-2.472.523-4.57.073-5.766-1.125-22.39-10.785-30.106-13.855-4.644-1.871-9.363-2.32-11.535-3.895-1.12-.746-1.722-1.57-2.02-2.547-.3-.972-.226-2.32.15-3.293.448-.898 1.421-1.87 2.32-2.32C4.421.66 6.82.81 6.82.81"/></clipPath><clipPath id="aY"><path d="M155.387 234.281h133.426v77.965H155.387Zm0 0"/></clipPath><clipPath id="aZ"><path d="M157.945 303.328c73.918-39.406 113.832-65.73 123.57-68.195 2.32-.54 3.446-.383 4.567.156.977.461 1.797 1.309 2.098 2.387.449 1.23.226 3.46-.375 4.617-.45 1-1.496 1.691-2.395 2.078-.898.309-2.098.461-3.07.078-1.2-.465-2.774-2.156-3.297-3.312-.375-1-.375-2.23.074-3.23.524-1.157 2.246-2.696 3.445-3.157.973-.309 2.172-.156 3.07.309.9.382 1.876 1.23 2.325 2.078.523.922.746 2.152.598 3.156-.149 1-.227 1.613-1.348 2.848-5.992 6.386-50.55 29.324-73.02 41.562-18.945 10.313-45.832 26.094-52.949 27.402-1.644.31-2.32.075-3.218-.386s-1.872-1.54-2.172-2.54c-.375-.925-.375-2.308-.075-3.308.375-1.004 2.172-2.543 2.172-2.543"/></clipPath><clipPath id="ba"><path d="M0 0h134v79H0Z"/></clipPath><clipPath id="bb"><path d="M.387.395H133.78v77.851H.387Zm0 0"/></clipPath><clipPath id="bc"><path d="M2.945 69.328c73.918-39.406 113.832-65.73 123.57-68.195 2.32-.54 3.446-.383 4.567.156.977.461 1.797 1.309 2.098 2.387.449 1.23.226 3.46-.375 4.617-.45 1-1.496 1.691-2.395 2.078-.898.309-2.097.461-3.07.078-1.2-.465-2.774-2.156-3.297-3.312-.375-1-.375-2.23.074-3.23.524-1.157 2.246-2.696 3.445-3.157.973-.309 2.172-.156 3.07.309.9.382 1.876 1.23 2.325 2.078.523.922.746 2.152.598 3.156-.149 1-.227 1.613-1.348 2.848-5.992 6.386-50.55 29.324-73.02 41.562C40.243 61.016 13.356 76.797 6.239 78.105c-1.644.31-2.32.075-3.218-.386s-1.872-1.54-2.172-2.54c-.375-.925-.375-2.308-.075-3.308.375-1.004 2.172-2.543 2.172-2.543"/></clipPath><clipPath id="bi"><path d="M57.406 253.188h103.246v59.21H57.406Zm0 0"/></clipPath><clipPath id="bj"><path d="M64.602 253.922c72.804 39.918 89.91 46.582 93.972 50.027 1.172.973 1.563 1.422 1.797 2.399.234 1.195-.156 3.218-.86 4.191-.624.824-1.64 1.348-2.577 1.574-.938.223-2.188.149-3.047-.226-.938-.375-1.875-1.121-2.266-2.02-.547-1.05-.703-3.148-.078-4.27.547-1.124 2.344-2.32 3.672-2.472 1.25-.148 3.281.676 4.14 1.5.782.672 1.172 1.797 1.172 2.695.078.899-.234 2.098-.703 2.844-.547.75-1.484 1.5-2.422 1.797-.937.3-1.484.453-3.047.078-7.578-1.723-44.289-22.32-61.71-31.754-12.965-7.039-29.915-15.055-33.743-19.098-1.093-1.125-1.328-1.875-1.406-2.921-.156-.973.234-2.32.938-3.145.625-.824 1.796-1.5 2.812-1.723 1.094-.226 3.356.524 3.356.524"/></clipPath><clipPath id="bk"><path d="M0 0h104v60H0Z"/></clipPath><clipPath id="bl"><path d="M.406.188h103.246v59.21H.406Zm0 0"/></clipPath><clipPath id="bm"><path d="M7.602.922c72.804 39.918 89.91 46.582 93.972 50.027 1.172.973 1.563 1.422 1.797 2.399.234 1.195-.156 3.218-.86 4.191-.624.824-1.64 1.348-2.577 1.574-.938.223-2.188.149-3.047-.226-.938-.375-1.875-1.121-2.266-2.02-.547-1.05-.703-3.148-.078-4.27.547-1.124 2.344-2.32 3.672-2.472 1.25-.148 3.281.676 4.14 1.5.782.672 1.172 1.797 1.172 2.695.078.899-.234 2.098-.703 2.844-.547.75-1.484 1.5-2.422 1.797-.937.3-1.484.453-3.047.078-7.578-1.723-44.289-22.32-61.71-31.754C22.68 20.246 5.73 12.23 1.902 8.188.81 7.062.574 6.312.496 5.265c-.156-.973.234-2.32.938-3.145C2.059 1.296 3.23.62 4.246.397 5.34.172 7.602.922 7.602.922"/></clipPath><clipPath id="aO"><path d="M281.09 199.57h10.445V243H281.09Zm0 0"/></clipPath><clipPath id="aP"><path d="M291.25 204.184c-.824 37.37-2.098 38.195-3.293 38.644-.977.3-2.172.152-3.07-.223-.903-.3-1.875-1.125-2.399-1.949-.523-.898-.75-2.097-.675-3.07.152-.973.527-2.098 1.351-2.77.899-.898 2.992-1.574 4.266-1.5 1.05.079 2.097.75 2.773 1.5.672.672 1.274 1.723 1.274 2.77.074 1.273-.676 3.371-1.649 4.27-1.05.824-3.223 1.199-4.492.972-.977-.223-1.95-.973-2.547-1.797-.601-.75-.75-1.347-.976-2.922-.82-5.164-1.196-30.03.375-34.972.449-1.575.976-2.172 1.875-2.696.824-.601 2.171-.972 3.144-.824 1.047.149 2.246.75 2.922 1.496.672.825 1.121 3.07 1.121 3.07"/></clipPath><clipPath id="aQ"><path d="M0 0h11v44H0Z"/></clipPath><clipPath id="aR"><path d="M.09.57h10.445V44H.09Zm0 0"/></clipPath><clipPath id="aS"><path d="M10.25 5.184c-.824 37.37-2.098 38.195-3.293 38.644-.977.3-2.172.152-3.07-.223-.903-.3-1.875-1.125-2.399-1.949-.523-.898-.75-2.097-.675-3.07.152-.973.527-2.098 1.351-2.77.898-.898 2.992-1.574 4.266-1.5 1.05.079 2.097.75 2.773 1.5.672.672 1.274 1.723 1.274 2.77.074 1.273-.676 3.371-1.649 4.27-1.05.824-3.223 1.199-4.492.972-.977-.223-1.95-.973-2.547-1.797-.601-.75-.75-1.347-.976-2.922-.82-5.164-1.196-30.03.375-34.972.449-1.574.976-2.172 1.875-2.696C3.887.84 5.233.47 6.207.617c1.047.149 2.246.75 2.922 1.496.672.825 1.121 3.07 1.121 3.07"/></clipPath></defs><g clip-path="url(#a)"><g clip-path="url(#b)"><g clip-path="url(#c)" transform="translate(-52.045 -54.257)scale(1.29936)"><g clip-path="url(#d)"><g clip-path="url(#e)" transform="translate(64 89)"><g clip-path="url(#f)"><g clip-path="url(#g)"><path d="M-189.034-217.856h593.568v611.712h-593.568z"/></g></g></g></g></g><g clip-path="url(#h)" transform="translate(-52.045 -54.257)scale(1.29936)"><g clip-path="url(#i)"><g clip-path="url(#j)" transform="translate(65 52)"><g clip-path="url(#k)"><g clip-path="url(#l)"><path d="M-190.034-180.856h593.568v611.712h-593.568z"/></g></g></g></g></g><g clip-path="url(#m)" transform="translate(-52.045 -54.257)scale(1.29936)"><g clip-path="url(#n)"><g clip-path="url(#o)" transform="translate(66 130)"><g clip-path="url(#p)"><g clip-path="url(#q)"><path d="M-191.034-258.856h593.568v611.712h-593.568z"/></g></g></g></g></g><g clip-path="url(#r)" transform="translate(-52.045 -54.257)scale(1.29936)"><g clip-path="url(#s)"><g clip-path="url(#t)" transform="translate(125 103)"><g clip-path="url(#u)"><g clip-path="url(#v)"><path d="M-250.034-231.856h593.568v611.712h-593.568z"/></g></g></g></g></g><g clip-path="url(#w)" transform="translate(-52.045 -54.257)scale(1.29936)"><g clip-path="url(#x)"><g clip-path="url(#y)" transform="translate(127 50)"><g clip-path="url(#z)"><g clip-path="url(#A)"><path d="M-252.034-178.856h593.568v611.712h-593.568z"/></g></g></g></g></g><g clip-path="url(#B)" transform="translate(-52.045 -54.257)scale(1.29936)"><g clip-path="url(#C)"><g clip-path="url(#D)" transform="translate(129 217)"><g clip-path="url(#E)"><g clip-path="url(#F)"><path d="M-254.034-345.856h593.568v611.712h-593.568z"/></g></g></g></g></g><g clip-path="url(#G)" transform="translate(-52.045 -54.257)scale(1.29936)"><g clip-path="url(#H)"><g clip-path="url(#I)" transform="translate(163 171)"><g clip-path="url(#J)"><g clip-path="url(#K)"><path d="M-288.034-299.856h593.568v611.712h-593.568z"/></g></g></g></g></g><g clip-path="url(#L)" transform="matrix(1.38643 0 0 1.17284 -72.451 -166.65)"><g clip-path="url(#M)"><g clip-path="url(#N)" transform="translate(163 171)"><g clip-path="url(#O)"><g clip-path="url(#P)"><path d="M-288.034-299.856h593.568v611.712h-593.568Z"/></g></g></g></g></g><g clip-path="url(#Q)" transform="translate(-52.045 -54.257)scale(1.29936)"><g clip-path="url(#R)"><g clip-path="url(#S)" transform="translate(270 68)"><g clip-path="url(#T)"><g clip-path="url(#U)"><path d="M-395.034-196.856h593.568v611.712h-593.568z"/></g></g></g></g></g><g clip-path="url(#V)" transform="translate(-194.386 16.644)scale(1.29936)"><g clip-path="url(#W)"><g clip-path="url(#X)" transform="translate(270 68)"><g clip-path="url(#Y)"><g clip-path="url(#Z)"><path d="M-395.034-196.856h593.568v611.712h-593.568Z"/></g></g></g></g></g><g clip-path="url(#aa)" transform="translate(-52.045 -54.257)scale(1.29936)"><g clip-path="url(#ab)"><g clip-path="url(#ac)" transform="translate(228 50)"><g clip-path="url(#ad)"><g clip-path="url(#ae)"><path d="M-353.034-178.856h593.568v611.712h-593.568z"/></g></g></g></g></g><g clip-path="url(#af)" transform="matrix(1.12091 0 0 1.3148 -140.214 13.913)"><g clip-path="url(#ag)"><g clip-path="url(#ah)" transform="translate(228 50)"><g clip-path="url(#ai)"><g clip-path="url(#aj)"><path d="M-353.034-178.856h593.568v611.712h-593.568Z"/></g></g></g></g></g><g clip-path="url(#ak)" transform="translate(-52.045 -54.257)scale(1.29936)"><g clip-path="url(#al)"><g clip-path="url(#am)" transform="translate(73 140)"><g clip-path="url(#an)"><g clip-path="url(#ao)"><path d="M-198.034-268.856h593.568v611.712h-593.568z"/></g></g></g></g></g><g clip-path="url(#ap)" transform="translate(-52.045 -54.257)scale(1.29936)"><g clip-path="url(#aq)"><g clip-path="url(#ar)" transform="translate(56 213)"><g clip-path="url(#as)"><g clip-path="url(#at)"><path d="M-181.034-341.856h593.568v611.712h-593.568z"/></g></g></g></g></g><g clip-path="url(#au)" transform="translate(-52.045 -54.257)scale(1.29936)"><g clip-path="url(#av)"><g clip-path="url(#aw)" transform="translate(56 189)"><g clip-path="url(#ax)"><g clip-path="url(#ay)"><path d="M-181.034-317.856h593.568v611.712h-593.568z"/></g></g></g></g></g><g clip-path="url(#az)" transform="translate(-52.045 -54.257)scale(1.29936)"><g clip-path="url(#aA)"><g clip-path="url(#aB)" transform="translate(249 185)"><g clip-path="url(#aC)"><g clip-path="url(#aD)"><path d="M-374.034-313.856h593.568v611.712h-593.568z"/></g></g></g></g></g><g clip-path="url(#aE)" transform="translate(-52.045 -54.257)scale(1.29936)"><g clip-path="url(#aF)"><g clip-path="url(#aG)" transform="translate(249 184)"><g clip-path="url(#aH)"><g clip-path="url(#aI)"><path d="M-374.034-312.856h593.568v611.712h-593.568z"/></g></g></g></g></g><g clip-path="url(#aJ)" transform="translate(-52.045 -54.257)scale(1.29936)"><g clip-path="url(#aK)"><g clip-path="url(#aL)" transform="translate(281 199)"><g clip-path="url(#aM)"><g clip-path="url(#aN)"><path d="M-406.034-327.856h593.568v611.712h-593.568z"/></g></g></g></g></g><g clip-path="url(#aO)" transform="translate(-217.38 31.444)scale(1.29936)"><g clip-path="url(#aP)"><g clip-path="url(#aQ)" transform="translate(281 199)"><g clip-path="url(#aR)"><g clip-path="url(#aS)"><path d="M-406.034-327.856h593.568v611.712h-593.568Z"/></g></g></g></g></g><g clip-path="url(#aT)" transform="translate(-52.045 -54.257)scale(1.29936)"><g clip-path="url(#aU)"><g clip-path="url(#aV)" transform="translate(155 234)"><g clip-path="url(#aW)"><g clip-path="url(#aX)"><path d="M-280.034-362.856h593.568v611.712h-593.568z"/></g></g></g></g></g><g clip-path="url(#aY)" transform="translate(-51.004 -102.537)scale(1.29936)"><g clip-path="url(#aZ)"><g clip-path="url(#ba)" transform="translate(155 234)"><g clip-path="url(#bb)"><g clip-path="url(#bc)"><path d="M-280.034-362.856h593.568v611.712h-593.568Z"/></g></g></g></g></g><g clip-path="url(#bd)" transform="translate(-52.045 -54.257)scale(1.29936)"><g clip-path="url(#be)"><g clip-path="url(#bf)" transform="translate(57 253)"><g clip-path="url(#bg)"><g clip-path="url(#bh)"><path d="M-182.034-381.856h593.568v611.712h-593.568z"/></g></g></g></g></g><g clip-path="url(#bi)" transform="translate(-50.058 -105.11)scale(1.29936)"><g clip-path="url(#bj)"><g clip-path="url(#bk)" transform="translate(57 253)"><g clip-path="url(#bl)"><g clip-path="url(#bm)"><path d="M-182.034-381.856h593.568v611.712h-593.568Z"/></g></g></g></g></g><g clip-path="url(#bn)" transform="translate(-52.045 -54.257)scale(1.29936)"><g clip-path="url(#bo)"><g clip-path="url(#bp)" transform="translate(131 50)"><g clip-path="url(#bq)"><g clip-path="url(#br)"><path d="M-256.034-178.856h593.568v611.712h-593.568z"/></g></g></g></g></g><g clip-path="url(#bs)" transform="matrix(1.45028 0 0 1.46285 -78.824 -76.263)"><g clip-path="url(#bt)"><g clip-path="url(#bu)" transform="translate(180 96)"><g clip-path="url(#bv)"><g clip-path="url(#bw)"><path d="M-305.034-224.856h593.568v611.712h-593.568Z"/></g></g></g></g></g><g clip-path="url(#bx)" transform="matrix(1.35079 0 0 1.3623 -54.816 -67.599)"><g clip-path="url(#by)"><g clip-path="url(#bz)" transform="translate(182 166)"><g clip-path="url(#bA)"><g clip-path="url(#bB)"><path d="M-307.034-294.856h593.568v611.712h-593.568Z"/></g></g></g></g></g><g clip-path="url(#bC)" transform="rotate(-4.097 -477.98 3182.927)scale(2.22925 1.29936)"><g clip-path="url(#bD)"><g clip-path="url(#bE)" transform="translate(178 130)"><g clip-path="url(#bF)"><g clip-path="url(#bG)"><path d="M-303.034-258.856h593.568v611.712h-593.568Z"/></g></g></g></g></g><g clip-path="url(#bH)" transform="matrix(2.1312 0 0 1.3561 -253.368 -66.802)"><g clip-path="url(#bI)"><g clip-path="url(#bJ)" transform="translate(249 97)"><g clip-path="url(#bK)"><g clip-path="url(#bL)"><path d="M-374.034-225.856h593.568v611.712h-593.568Z"/></g></g></g></g></g><g clip-path="url(#bM)" transform="translate(-52.045 -54.257)scale(1.29936)"><g clip-path="url(#bN)"><g clip-path="url(#bO)" transform="translate(189 203)"><g clip-path="url(#bP)"><g clip-path="url(#bQ)"><path d="M-314.034-331.856h593.568v611.712h-593.568z"/></g></g></g></g></g><g clip-path="url(#bR)" transform="translate(-45.44 -57.147)scale(1.29936)"><g clip-path="url(#bS)"><g clip-path="url(#bT)" transform="translate(190 146)"><g clip-path="url(#bU)"><g clip-path="url(#bV)"><path d="M-315.034-274.856h593.568v611.712h-593.568Z"/></g></g></g></g></g><g clip-path="url(#bW)" transform="matrix(1.6252 0 0 1.77687 -110.403 -127.64)"><g clip-path="url(#bX)"><g clip-path="url(#bY)" transform="translate(196 139)"><g clip-path="url(#bZ)"><g clip-path="url(#ca)"><path d="M-321.034-267.856h593.568v611.712h-593.568Z"/></g></g></g></g></g><g clip-path="url(#cb)" transform="matrix(1.58898 0 0 1.77695 -113.828 -117.717)"><g clip-path="url(#cc)"><g clip-path="url(#cd)" transform="translate(229 124)"><g clip-path="url(#ce)"><g clip-path="url(#cf)"><path d="M-354.034-252.856h593.568v611.712h-593.568Z"/></g></g></g></g></g><g clip-path="url(#cg)" transform="translate(-52.045 -54.257)scale(1.29936)"><g clip-path="url(#ch)"><g clip-path="url(#ci)" transform="translate(182 250)"><g clip-path="url(#cj)"><g clip-path="url(#ck)"><path d="M-307.034-378.856h593.568v611.712h-593.568z"/></g></g></g></g></g><g clip-path="url(#cl)" transform="translate(-52.045 -54.257)scale(1.29936)"><g clip-path="url(#cm)"><g clip-path="url(#cn)" transform="translate(256 224)"><g clip-path="url(#co)"><g clip-path="url(#cp)"><path d="M-381.034-352.856h593.568v611.712h-593.568z"/></g></g></g></g></g><g clip-path="url(#cq)" transform="translate(-52.045 -54.257)scale(1.29936)"><g clip-path="url(#cr)"><g clip-path="url(#cs)" transform="translate(260 223)"><g clip-path="url(#ct)"><g clip-path="url(#cu)"><path d="M-385.034-351.856h593.568v611.712h-593.568z"/></g></g></g></g></g><g clip-path="url(#cv)" transform="rotate(-18.294 -681.542 368.98)scale(1.26788 3.30402)"><g clip-path="url(#cw)"><g clip-path="url(#cx)" transform="translate(71 91)"><g clip-path="url(#cy)"><g clip-path="url(#cz)"><path d="M-196.034-219.856h593.568v611.712h-593.568Z"/></g></g></g></g></g><g clip-path="url(#cA)" transform="matrix(1.70089 0 0 1.85297 -101.857 -179.068)"><g clip-path="url(#cB)"><g clip-path="url(#cC)" transform="translate(102 200)"><g clip-path="url(#cD)"><g clip-path="url(#cE)"><path d="M-227.034-328.856h593.568v611.712h-593.568Z"/></g></g></g></g></g></g></g></svg>